<?xml version="1.0" encoding="UTF-8"?>
<svg xmlns="http://www.w3.org/2000/svg" xmlns:xlink="http://www.w3.org/1999/xlink" width="85.892" height="68.551" viewBox="0 0 85.892 68.551">
<defs>
<g>
<g id="glyph-0-0">
<path d="M 7.34375 -6.796875 L 7.15625 -6.90625 C 7.03125 -6.765625 6.9375 -6.65625 6.78125 -6.53125 C 6.59375 -6.390625 6.40625 -6.296875 6.203125 -6.296875 C 5.71875 -6.296875 5.125 -6.4375 4.609375 -6.5625 C 4.140625 -6.703125 3.5 -6.8125 3.15625 -6.8125 C 2.59375 -6.8125 1.96875 -6.625 1.453125 -6.203125 C 1.046875 -5.875 0.6875 -5.5 0.5625 -5.03125 C 0.515625 -4.796875 0.53125 -4.5625 0.640625 -4.40625 C 0.703125 -4.3125 0.796875 -4.234375 0.921875 -4.234375 C 1.046875 -4.234375 1.15625 -4.3125 1.25 -4.390625 C 1.359375 -4.46875 1.453125 -4.5625 1.46875 -4.671875 C 1.5 -4.75 1.5 -4.84375 1.453125 -4.90625 C 1.390625 -4.984375 1.328125 -5.078125 1.28125 -5.1875 C 1.265625 -5.265625 1.25 -5.328125 1.265625 -5.421875 C 1.328125 -5.6875 1.453125 -5.84375 1.671875 -6.03125 C 1.90625 -6.21875 2.25 -6.3125 2.5 -6.3125 C 2.890625 -6.3125 3.53125 -6.125 4 -5.96875 L 3.171875 -2.546875 C 3.0625 -2.109375 2.9375 -1.671875 2.71875 -1.234375 C 2.609375 -0.96875 2.421875 -0.6875 2.1875 -0.484375 C 1.96875 -0.328125 1.78125 -0.265625 1.5625 -0.265625 C 1.421875 -0.265625 1.296875 -0.28125 1.21875 -0.375 C 1.140625 -0.484375 1.1875 -0.671875 1.25 -0.84375 C 1.28125 -0.953125 1.328125 -1.09375 1.28125 -1.171875 C 1.21875 -1.25 1.109375 -1.328125 1 -1.328125 C 0.890625 -1.328125 0.78125 -1.265625 0.671875 -1.1875 C 0.5625 -1.09375 0.484375 -0.984375 0.453125 -0.859375 C 0.375 -0.609375 0.375 -0.375 0.484375 -0.203125 C 0.640625 0 0.9375 0.0625 1.21875 0.0625 C 1.6875 0.0625 2.140625 -0.09375 2.546875 -0.421875 C 2.921875 -0.71875 3.203125 -1.109375 3.421875 -1.5 C 3.703125 -2.046875 3.84375 -2.609375 3.984375 -3.15625 L 4.671875 -5.84375 C 5.03125 -5.765625 5.546875 -5.65625 5.78125 -5.65625 C 6.046875 -5.65625 6.34375 -5.765625 6.578125 -5.96875 C 6.875 -6.234375 7.09375 -6.484375 7.34375 -6.796875 Z M 7.34375 -6.796875 "/>
</g>
<g id="glyph-0-1">
<path d="M 2.828125 -6.234375 C 2.828125 -6.4375 2.6875 -6.59375 2.46875 -6.59375 C 2.1875 -6.59375 1.921875 -6.328125 1.921875 -6.0625 C 1.921875 -5.875 2.0625 -5.703125 2.296875 -5.703125 C 2.53125 -5.703125 2.828125 -5.9375 2.828125 -6.234375 Z M 2.921875 -1.421875 C 2.921875 -1.53125 2.828125 -1.53125 2.796875 -1.53125 C 2.703125 -1.53125 2.703125 -1.5 2.65625 -1.34375 C 2.46875 -0.71875 2.140625 -0.109375 1.640625 -0.109375 C 1.46875 -0.109375 1.390625 -0.203125 1.390625 -0.4375 C 1.390625 -0.6875 1.453125 -0.828125 1.6875 -1.4375 L 2.078125 -2.484375 C 2.1875 -2.765625 2.1875 -2.796875 2.296875 -3.0625 C 2.375 -3.265625 2.421875 -3.40625 2.421875 -3.59375 C 2.421875 -4.03125 2.109375 -4.40625 1.609375 -4.40625 C 0.671875 -4.40625 0.296875 -2.953125 0.296875 -2.875 C 0.296875 -2.765625 0.40625 -2.765625 0.40625 -2.765625 C 0.515625 -2.765625 0.515625 -2.796875 0.5625 -2.953125 C 0.84375 -3.890625 1.234375 -4.1875 1.578125 -4.1875 C 1.65625 -4.1875 1.828125 -4.1875 1.828125 -3.875 C 1.828125 -3.65625 1.75 -3.453125 1.71875 -3.34375 C 1.640625 -3.09375 1.1875 -1.9375 1.03125 -1.5 C 0.921875 -1.25 0.796875 -0.921875 0.796875 -0.703125 C 0.796875 -0.234375 1.140625 0.109375 1.609375 0.109375 C 2.546875 0.109375 2.921875 -1.328125 2.921875 -1.421875 Z M 2.921875 -1.421875 "/>
</g>
<g id="glyph-0-2">
<path d="M 4.71875 -3.9375 C 4.71875 -4.109375 4.609375 -4.203125 4.4375 -4.203125 C 4.34375 -4.203125 4.0625 -4.140625 4.03125 -3.78125 C 3.84375 -4.140625 3.5 -4.40625 3.09375 -4.40625 C 1.96875 -4.40625 0.734375 -3.015625 0.734375 -1.578125 C 0.734375 -0.59375 1.328125 0 2.046875 0 C 2.640625 0 3.109375 -0.46875 3.203125 -0.578125 L 3.21875 -0.5625 L 2.890625 0.75 C 2.84375 0.84375 2.515625 1.828125 1.453125 1.828125 C 1.265625 1.828125 0.9375 1.8125 0.65625 1.71875 C 0.953125 1.640625 1.0625 1.375 1.0625 1.203125 C 1.0625 1.046875 0.953125 0.859375 0.6875 0.859375 C 0.46875 0.859375 0.15625 1.03125 0.15625 1.4375 C 0.15625 1.84375 0.515625 2.046875 1.46875 2.046875 C 2.71875 2.046875 3.4375 1.265625 3.59375 0.671875 L 4.6875 -3.765625 C 4.703125 -3.8125 4.71875 -3.875 4.71875 -3.9375 Z M 3.90625 -3.328125 C 3.90625 -3.28125 3.890625 -3.21875 3.875 -3.1875 L 3.40625 -1.28125 C 3.34375 -1.015625 3.109375 -0.765625 2.890625 -0.578125 C 2.6875 -0.40625 2.375 -0.21875 2.078125 -0.21875 C 1.578125 -0.21875 1.4375 -0.734375 1.4375 -1.140625 C 1.4375 -1.609375 1.71875 -2.796875 2 -3.296875 C 2.265625 -3.78125 2.6875 -4.1875 3.109375 -4.1875 C 3.765625 -4.1875 3.90625 -3.375 3.90625 -3.328125 Z M 3.90625 -3.328125 "/>
</g>
<g id="glyph-0-3">
<path d="M 5.5 -6.34375 C 5.5 -6.796875 5.046875 -7.03125 4.640625 -7.03125 C 4.296875 -7.03125 3.671875 -6.84375 3.375 -5.859375 C 3.3125 -5.65625 3.28125 -5.546875 3.046875 -4.296875 L 2.359375 -4.296875 C 2.15625 -4.296875 2.046875 -4.296875 2.046875 -4.109375 C 2.046875 -3.984375 2.140625 -3.984375 2.328125 -3.984375 L 2.984375 -3.984375 L 2.25 -0.046875 C 2.0625 0.921875 1.890625 1.828125 1.375 1.828125 C 1.328125 1.828125 1.09375 1.828125 0.890625 1.640625 C 1.359375 1.609375 1.453125 1.25 1.453125 1.109375 C 1.453125 0.875 1.265625 0.75 1.078125 0.75 C 0.8125 0.75 0.53125 0.984375 0.53125 1.359375 C 0.53125 1.796875 0.96875 2.046875 1.375 2.046875 C 1.921875 2.046875 2.328125 1.453125 2.5 1.078125 C 2.828125 0.453125 3.046875 -0.75 3.0625 -0.828125 L 3.65625 -3.984375 L 4.515625 -3.984375 C 4.71875 -3.984375 4.8125 -3.984375 4.8125 -4.1875 C 4.8125 -4.296875 4.71875 -4.296875 4.546875 -4.296875 L 3.71875 -4.296875 C 3.828125 -4.875 3.8125 -4.859375 3.921875 -5.4375 C 3.96875 -5.640625 4.109375 -6.34375 4.171875 -6.46875 C 4.25 -6.65625 4.421875 -6.8125 4.640625 -6.8125 C 4.671875 -6.8125 4.9375 -6.8125 5.125 -6.625 C 4.6875 -6.59375 4.578125 -6.234375 4.578125 -6.09375 C 4.578125 -5.859375 4.765625 -5.734375 4.953125 -5.734375 C 5.21875 -5.734375 5.5 -5.96875 5.5 -6.34375 Z M 5.5 -6.34375 "/>
</g>
<g id="glyph-1-0">
<path d="M 4.34375 -4.21875 C 4.390625 -4.390625 4.34375 -4.5625 4.265625 -4.65625 C 4.09375 -4.84375 3.796875 -4.890625 3.5 -4.890625 C 3.03125 -4.890625 2.578125 -4.84375 2.15625 -4.53125 C 1.875 -4.328125 1.671875 -4.046875 1.59375 -3.765625 C 1.53125 -3.484375 1.546875 -3.21875 1.703125 -3.03125 C 1.828125 -2.875 2.03125 -2.78125 2.234375 -2.703125 L 2.21875 -2.640625 C 1.8125 -2.59375 1.40625 -2.453125 1.0625 -2.21875 C 0.703125 -1.9375 0.421875 -1.578125 0.328125 -1.203125 C 0.25 -0.890625 0.265625 -0.578125 0.453125 -0.359375 C 0.59375 -0.203125 0.796875 -0.09375 1.015625 -0.03125 C 1.296875 0.0625 1.59375 0.078125 1.890625 0.078125 C 2.484375 0.078125 3.078125 -0.109375 3.578125 -0.46875 C 3.65625 -0.515625 3.75 -0.640625 3.828125 -0.734375 L 3.5625 -1.078125 L 3.453125 -1.046875 C 3.375 -0.859375 3.265625 -0.671875 3.078125 -0.546875 C 2.78125 -0.328125 2.4375 -0.171875 2.078125 -0.171875 C 1.71875 -0.171875 1.328125 -0.21875 1.125 -0.453125 C 0.921875 -0.6875 0.90625 -1 0.96875 -1.3125 C 1.0625 -1.625 1.25 -1.9375 1.546875 -2.15625 C 1.765625 -2.3125 2.0625 -2.390625 2.3125 -2.4375 C 2.6875 -2.515625 3.03125 -2.53125 3.40625 -2.53125 L 3.4375 -2.703125 C 3.171875 -2.703125 2.90625 -2.734375 2.671875 -2.796875 C 2.5 -2.84375 2.328125 -2.90625 2.234375 -3.03125 C 2.078125 -3.1875 2.03125 -3.4375 2.09375 -3.671875 C 2.171875 -3.984375 2.375 -4.28125 2.65625 -4.5 C 2.84375 -4.640625 3.109375 -4.671875 3.328125 -4.671875 C 3.515625 -4.671875 3.640625 -4.640625 3.734375 -4.5625 C 3.796875 -4.5 3.84375 -4.40625 3.8125 -4.28125 C 3.78125 -4.171875 3.71875 -4.09375 3.640625 -4.015625 C 3.59375 -3.96875 3.546875 -3.921875 3.53125 -3.859375 C 3.515625 -3.796875 3.53125 -3.75 3.546875 -3.71875 C 3.59375 -3.671875 3.640625 -3.65625 3.734375 -3.65625 C 3.8125 -3.65625 4.015625 -3.703125 4.125 -3.8125 C 4.28125 -3.953125 4.3125 -4.0625 4.34375 -4.21875 Z M 4.34375 -4.21875 "/>
</g>
<g id="glyph-1-1">
<path d="M 4.671875 -3.859375 C 4.734375 -4.125 4.734375 -4.359375 4.578125 -4.53125 C 4.34375 -4.796875 3.9375 -4.859375 3.53125 -4.859375 C 2.90625 -4.859375 2.265625 -4.703125 1.71875 -4.328125 C 1.375 -4.078125 1.109375 -3.78125 0.90625 -3.453125 C 0.65625 -3.046875 0.5 -2.609375 0.390625 -2.1875 C 0.296875 -1.828125 0.265625 -1.46875 0.296875 -1.140625 C 0.328125 -0.84375 0.421875 -0.578125 0.609375 -0.375 C 0.875 -0.0625 1.3125 0.109375 1.8125 0.109375 C 2.34375 0.109375 2.9375 -0.015625 3.40625 -0.359375 C 3.546875 -0.46875 3.671875 -0.59375 3.765625 -0.734375 L 3.484375 -1.0625 L 3.390625 -1.015625 C 3.296875 -0.796875 3.15625 -0.578125 2.953125 -0.4375 C 2.6875 -0.25 2.375 -0.125 2.0625 -0.125 C 1.71875 -0.125 1.421875 -0.28125 1.234375 -0.5 C 1.046875 -0.703125 0.953125 -0.984375 0.921875 -1.28125 C 0.875 -1.625 0.921875 -2 1.015625 -2.359375 C 1.109375 -2.765625 1.25 -3.15625 1.46875 -3.53125 C 1.625 -3.8125 1.84375 -4.0625 2.125 -4.265625 C 2.484375 -4.53125 2.90625 -4.640625 3.328125 -4.640625 C 3.609375 -4.640625 3.875 -4.578125 4.015625 -4.390625 C 4.171875 -4.234375 4.171875 -4.015625 4.109375 -3.78125 C 4.046875 -3.53125 3.921875 -3.265625 3.671875 -3.09375 C 3.484375 -2.953125 3.28125 -2.859375 3.046875 -2.859375 C 2.953125 -2.859375 2.84375 -2.859375 2.765625 -2.9375 C 2.703125 -3.015625 2.734375 -3.140625 2.78125 -3.25 C 2.84375 -3.359375 2.890625 -3.46875 2.828125 -3.546875 C 2.78125 -3.59375 2.6875 -3.609375 2.609375 -3.609375 C 2.515625 -3.609375 2.40625 -3.609375 2.328125 -3.546875 C 2.25 -3.484375 2.203125 -3.375 2.1875 -3.296875 C 2.140625 -3.140625 2.15625 -2.984375 2.265625 -2.890625 C 2.4375 -2.703125 2.71875 -2.65625 3.03125 -2.65625 C 3.375 -2.65625 3.75 -2.75 4.0625 -2.984375 C 4.390625 -3.21875 4.59375 -3.53125 4.671875 -3.859375 Z M 4.671875 -3.859375 "/>
</g>
<g id="glyph-1-2">
<path d="M 6.3125 -2.734375 C 6.4375 -3.25 6.453125 -3.796875 6.125 -4.171875 C 5.921875 -4.40625 5.59375 -4.5625 5.25 -4.65625 C 4.796875 -4.78125 4.296875 -4.796875 3.78125 -4.796875 L 3.828125 -4.96875 L 3.78125 -4.984375 L 3.25 -4.78125 C 2.671875 -4.734375 2 -4.59375 1.4375 -4.1875 C 1.15625 -3.984375 0.953125 -3.703125 0.875 -3.421875 C 0.84375 -3.28125 0.84375 -3.15625 0.875 -3.078125 C 0.90625 -3.03125 0.96875 -2.96875 1.0625 -2.96875 C 1.15625 -2.96875 1.25 -3.015625 1.3125 -3.0625 C 1.40625 -3.125 1.4375 -3.21875 1.453125 -3.296875 C 1.5 -3.453125 1.46875 -3.5625 1.515625 -3.71875 C 1.546875 -3.875 1.65625 -4.046875 1.8125 -4.140625 C 2.234375 -4.453125 2.703125 -4.578125 3.1875 -4.578125 L 2.65625 -2.421875 C 2.578125 -2.078125 2.484375 -1.734375 2.328125 -1.390625 C 2.234375 -1.1875 2.09375 -0.984375 1.90625 -0.84375 C 1.515625 -0.546875 1.046875 -0.375 0.59375 -0.375 L 0.28125 -0.03125 L 2.578125 -0.03125 C 3.390625 -0.03125 4.21875 -0.3125 4.9375 -0.8125 C 5.625 -1.328125 6.125 -2.015625 6.3125 -2.734375 Z M 5.734375 -2.703125 C 5.640625 -2.328125 5.5 -1.96875 5.296875 -1.625 C 5.125 -1.359375 4.90625 -1.09375 4.625 -0.890625 C 4.375 -0.703125 4.078125 -0.546875 3.78125 -0.46875 C 3.40625 -0.375 3.03125 -0.375 2.65625 -0.375 L 1.703125 -0.375 L 1.6875 -0.453125 L 2.03125 -0.703125 C 2.359375 -0.953125 2.625 -1.28125 2.8125 -1.609375 C 3.046875 -2.046875 3.21875 -2.5 3.328125 -2.9375 L 3.734375 -4.578125 C 4.125 -4.578125 4.484375 -4.546875 4.828125 -4.453125 C 5.09375 -4.375 5.328125 -4.265625 5.5 -4.09375 C 5.8125 -3.71875 5.859375 -3.203125 5.734375 -2.703125 Z M 5.734375 -2.703125 "/>
</g>
<g id="glyph-1-3">
<path d="M 3.015625 -1 C 3.078125 -1.109375 3.03125 -1.25 2.921875 -1.296875 L 1.90625 -1.734375 L 2.921875 -2.1875 C 3.03125 -2.234375 3.078125 -2.375 3.015625 -2.484375 C 2.953125 -2.578125 2.8125 -2.609375 2.71875 -2.546875 L 1.828125 -1.890625 L 1.9375 -2.984375 C 1.953125 -3.109375 1.875 -3.21875 1.734375 -3.21875 C 1.609375 -3.21875 1.53125 -3.109375 1.546875 -2.984375 L 1.65625 -1.890625 L 0.765625 -2.546875 C 0.671875 -2.609375 0.53125 -2.578125 0.46875 -2.484375 C 0.40625 -2.375 0.453125 -2.234375 0.5625 -2.1875 L 1.578125 -1.734375 L 0.5625 -1.296875 C 0.453125 -1.25 0.40625 -1.109375 0.46875 -1 C 0.53125 -0.90625 0.671875 -0.875 0.765625 -0.9375 L 1.65625 -1.59375 L 1.546875 -0.5 C 1.53125 -0.375 1.609375 -0.265625 1.734375 -0.265625 C 1.875 -0.265625 1.953125 -0.375 1.9375 -0.5 L 1.828125 -1.59375 L 2.71875 -0.9375 C 2.8125 -0.875 2.953125 -0.90625 3.015625 -1 Z M 3.015625 -1 "/>
</g>
<g id="glyph-2-0">
<path d="M 2.515625 0 L 2.515625 -0.25 L 2.34375 -0.25 C 1.765625 -0.25 1.765625 -0.328125 1.765625 -0.578125 L 1.765625 -4.1875 C 1.765625 -4.421875 1.765625 -4.515625 2.34375 -4.515625 L 2.515625 -4.515625 L 2.515625 -4.765625 L 1.4375 -4.734375 L 0.359375 -4.765625 L 0.359375 -4.515625 L 0.53125 -4.515625 C 1.109375 -4.515625 1.109375 -4.421875 1.109375 -4.1875 L 1.109375 -0.578125 C 1.109375 -0.328125 1.109375 -0.25 0.53125 -0.25 L 0.359375 -0.25 L 0.359375 0 L 1.4375 -0.03125 Z M 2.515625 0 "/>
</g>
<g id="glyph-2-1">
<path d="M 5.6875 -0.640625 C 5.6875 -0.6875 5.6875 -0.765625 5.578125 -0.765625 C 5.46875 -0.765625 5.46875 -0.703125 5.453125 -0.640625 C 5.421875 -0.234375 5.1875 -0.0625 4.96875 -0.0625 C 4.578125 -0.0625 4.515625 -0.46875 4.4375 -1.09375 C 4.359375 -1.65625 4.34375 -1.765625 4.140625 -2 C 4.0625 -2.078125 3.875 -2.265625 3.5 -2.375 C 4.125 -2.515625 4.75 -2.9375 4.75 -3.5 C 4.75 -4.1875 3.828125 -4.765625 2.75 -4.765625 L 0.40625 -4.765625 L 0.40625 -4.515625 L 0.578125 -4.515625 C 1.109375 -4.515625 1.125 -4.4375 1.125 -4.1875 L 1.125 -0.5625 C 1.125 -0.328125 1.109375 -0.25 0.578125 -0.25 L 0.40625 -0.25 L 0.40625 0 L 1.4375 -0.03125 L 2.46875 0 L 2.46875 -0.25 L 2.3125 -0.25 C 1.765625 -0.25 1.75 -0.328125 1.75 -0.5625 L 1.75 -2.28125 L 2.6875 -2.28125 C 2.8125 -2.28125 3.171875 -2.28125 3.484375 -2 C 3.71875 -1.78125 3.71875 -1.609375 3.71875 -1.140625 C 3.71875 -0.6875 3.71875 -0.40625 4.046875 -0.140625 C 4.34375 0.109375 4.75 0.140625 4.953125 0.140625 C 5.546875 0.140625 5.6875 -0.421875 5.6875 -0.640625 Z M 4 -3.5 C 4 -2.71875 3.40625 -2.484375 2.65625 -2.484375 L 1.75 -2.484375 L 1.75 -4.234375 C 1.75 -4.4375 1.765625 -4.484375 1.9375 -4.5 C 2 -4.515625 2.234375 -4.515625 2.390625 -4.515625 C 3.046875 -4.515625 4 -4.515625 4 -3.5 Z M 4 -3.5 "/>
</g>
</g>
</defs>
<g fill="rgb(0%, 0%, 0%)" fill-opacity="1">
<use xlink:href="#glyph-0-0" x="11.049" y="18.796"/>
</g>
<g fill="rgb(0%, 0%, 0%)" fill-opacity="1">
<use xlink:href="#glyph-1-0" x="18.78" y="21.257"/>
</g>
<g fill="rgb(0%, 0%, 0%)" fill-opacity="1">
<use xlink:href="#glyph-0-0" x="63.364" y="18.796"/>
</g>
<g fill="rgb(0%, 0%, 0%)" fill-opacity="1">
<use xlink:href="#glyph-1-1" x="71.095" y="21.257"/>
</g>
<g fill="rgb(0%, 0%, 0%)" fill-opacity="1">
<use xlink:href="#glyph-0-0" x="10.031" y="54.832"/>
</g>
<g fill="rgb(0%, 0%, 0%)" fill-opacity="1">
<use xlink:href="#glyph-1-2" x="17.762" y="57.293"/>
</g>
<g fill="rgb(0%, 0%, 0%)" fill-opacity="1">
<use xlink:href="#glyph-0-0" x="61.53" y="54.832"/>
</g>
<g fill="rgb(0%, 0%, 0%)" fill-opacity="1">
<use xlink:href="#glyph-2-0" x="69.261" y="57.293"/>
<use xlink:href="#glyph-2-1" x="72.1412" y="57.293"/>
</g>
<path fill="none" stroke-width="0.3985" stroke-linecap="butt" stroke-linejoin="miter" stroke="rgb(0%, 0%, 0%)" stroke-opacity="1" stroke-miterlimit="10" d="M -12.170063 18.044813 L 15.388531 18.037 " transform="matrix(1, 0, 0, -1, 44.256, 34.662)"/>
<path fill-rule="nonzero" fill="rgb(0%, 0%, 0%)" fill-opacity="1" stroke-width="0.3985" stroke-linecap="butt" stroke-linejoin="miter" stroke="rgb(0%, 0%, 0%)" stroke-opacity="1" stroke-miterlimit="10" d="M 3.761257 -0.000920267 C 3.300287 0.112271 1.268869 0.752503 -0.000827032 1.447575 L -0.000248102 -1.447014 C 1.269169 -0.751434 3.300333 -0.114296 3.761257 -0.000920267 Z M 3.761257 -0.000920267 " transform="matrix(-0.99998, -0.0002, -0.0002, 0.99998, 32.0854, 16.61886)"/>
<path fill="none" stroke-width="0.3985" stroke-linecap="butt" stroke-linejoin="miter" stroke="rgb(0%, 0%, 0%)" stroke-opacity="1" stroke-miterlimit="10" d="M -0.00140726 2.292404 L -0.000948647 -0.000610202 M -0.000490816 -2.289718 L -0.000948647 -0.000610202 " transform="matrix(0.99998, 0.0002, 0.0002, -0.99998, 59.64548, 16.62439)"/>
<g fill="rgb(0%, 0%, 0%)" fill-opacity="1">
<use xlink:href="#glyph-0-1" x="39.179" y="10.159"/>
</g>
<g fill="rgb(0%, 0%, 0%)" fill-opacity="1">
<use xlink:href="#glyph-1-3" x="42.617" y="6.543"/>
</g>
<g fill="rgb(0%, 0%, 0%)" fill-opacity="1">
<use xlink:href="#glyph-1-1" x="42.617" y="12.997"/>
</g>
<path fill="none" stroke-width="0.3985" stroke-linecap="butt" stroke-linejoin="miter" stroke="rgb(0%, 0%, 0%)" stroke-opacity="1" stroke-miterlimit="10" d="M -26.740375 5.220594 L -26.740375 -9.545031 " transform="matrix(1, 0, 0, -1, 44.256, 34.662)"/>
<path fill-rule="nonzero" fill="rgb(0%, 0%, 0%)" fill-opacity="1" stroke-width="0.3985" stroke-linecap="butt" stroke-linejoin="miter" stroke="rgb(0%, 0%, 0%)" stroke-opacity="1" stroke-miterlimit="10" d="M 3.759396 0.000335 C 3.298459 0.113616 1.267209 0.750335 0.00158375 1.445648 L 0.00158375 -1.444977 C 1.267209 -0.749665 3.298459 -0.112946 3.759396 0.000335 Z M 3.759396 0.000335 " transform="matrix(0, -1, -1, 0, 17.51596, 29.44299)"/>
<path fill="none" stroke-width="0.3985" stroke-linecap="butt" stroke-linejoin="miter" stroke="rgb(0%, 0%, 0%)" stroke-opacity="1" stroke-miterlimit="10" d="M -0.00177875 2.292634 L -0.00177875 -0.000335 M -0.00177875 -2.293304 L -0.00177875 -0.000335 " transform="matrix(0, 1, 1, 0, 17.51596, 44.20881)"/>
<g fill="rgb(0%, 0%, 0%)" fill-opacity="1">
<use xlink:href="#glyph-0-1" x="3.321" y="36.568"/>
</g>
<g fill="rgb(0%, 0%, 0%)" fill-opacity="1">
<use xlink:href="#glyph-1-3" x="6.758" y="32.952"/>
</g>
<g fill="rgb(0%, 0%, 0%)" fill-opacity="1">
<use xlink:href="#glyph-1-2" x="6.758" y="39.539"/>
</g>
<path fill="none" stroke-width="0.3985" stroke-linecap="butt" stroke-linejoin="miter" stroke="rgb(0%, 0%, 0%)" stroke-opacity="1" stroke-miterlimit="10" d="M 25.747906 5.197156 L 25.747906 -9.545031 " transform="matrix(1, 0, 0, -1, 44.256, 34.662)"/>
<path fill-rule="nonzero" fill="rgb(0%, 0%, 0%)" fill-opacity="1" stroke-width="0.3985" stroke-linecap="butt" stroke-linejoin="miter" stroke="rgb(0%, 0%, 0%)" stroke-opacity="1" stroke-miterlimit="10" d="M 3.760785 0.00182375 C 3.299848 0.111199 1.268598 0.751824 -0.00093375 1.447136 L -0.00093375 -1.447395 C 1.268598 -0.752083 3.299848 -0.111458 3.760785 0.00182375 Z M 3.760785 0.00182375 " transform="matrix(0, -1, -1, 0, 70.00573, 29.46391)"/>
<path fill="none" stroke-width="0.3985" stroke-linecap="butt" stroke-linejoin="miter" stroke="rgb(0%, 0%, 0%)" stroke-opacity="1" stroke-miterlimit="10" d="M -0.00177875 2.291145 L -0.00177875 -0.00182375 M -0.00177875 -2.290886 L -0.00177875 -0.00182375 " transform="matrix(0, 1, 1, 0, 70.00573, 44.20881)"/>
<g fill="rgb(0%, 0%, 0%)" fill-opacity="1">
<use xlink:href="#glyph-0-2" x="73.525" y="37.043"/>
</g>
<g fill="rgb(0%, 0%, 0%)" fill-opacity="1">
<use xlink:href="#glyph-1-3" x="78.526" y="33.426"/>
</g>
<path fill="none" stroke-width="0.3985" stroke-linecap="butt" stroke-linejoin="miter" stroke="rgb(0%, 0%, 0%)" stroke-opacity="1" stroke-miterlimit="10" d="M -11.150531 -17.970812 L 13.5565 -18.002062 " transform="matrix(1, 0, 0, -1, 44.256, 34.662)"/>
<path fill-rule="nonzero" fill="rgb(0%, 0%, 0%)" fill-opacity="1" stroke-width="0.3985" stroke-linecap="butt" stroke-linejoin="miter" stroke="rgb(0%, 0%, 0%)" stroke-opacity="1" stroke-miterlimit="10" d="M 3.759927 -0.00106932 C 3.29883 0.111601 1.270597 0.749541 0.00011288 1.447084 L 0.0000564329 -1.447505 C 1.268686 -0.750491 3.299126 -0.111059 3.759927 -0.00106932 Z M 3.759927 -0.00106932 " transform="matrix(-0.99998, -0.00133, -0.00133, 0.99998, 33.1036, 52.63107)"/>
<path fill="none" stroke-width="0.3985" stroke-linecap="butt" stroke-linejoin="miter" stroke="rgb(0%, 0%, 0%)" stroke-opacity="1" stroke-miterlimit="10" d="M -0.00188959 2.2929 L 0.00116017 -0.000110959 M 0.000303615 -2.293127 L 0.00116017 -0.000110959 " transform="matrix(0.99998, 0.00133, 0.00133, -0.99998, 57.81134, 52.66395)"/>
<g fill="rgb(0%, 0%, 0%)" fill-opacity="1">
<use xlink:href="#glyph-0-3" x="38.354" y="63.188"/>
</g>
<g fill="rgb(0%, 0%, 0%)" fill-opacity="1">
<use xlink:href="#glyph-1-3" x="44.132" y="59.572"/>
</g>
</svg>
